<svg xmlns="http://www.w3.org/2000/svg" xmlns:xlink="http://www.w3.org/1999/xlink"><symbol id="arrow-right" viewBox="0 0 5 10"><g fill="none"><path d="M0.476196 8.80957L4.28572 5.00005L0.476196 1.19052" stroke="currentColor" stroke-linejoin="round"/></g></symbol><symbol id="arrow-up" viewBox="0 0 14 8"><g fill="none"><path fill-rule="evenodd" clip-rule="evenodd" d="M0.469668 7.5303C0.176777 7.2374 0.176777 6.7626 0.469668 6.4697L6.4697 0.469668C6.7626 0.176777 7.2374 0.176777 7.5303 0.469668L13.5303 6.4697C13.8232 6.7626 13.8232 7.2374 13.5303 7.5303C13.2374 7.8232 12.7626 7.8232 12.4697 7.5303L7 2.06066L1.53033 7.5303C1.23744 7.8232 0.762558 7.8232 0.469668 7.5303Z" fill="currentColor"/></g></symbol><symbol id="icon-burger" viewBox="0 0 32 18"><g fill="none"><path d="M1 17H31" stroke="black" stroke-width="2" stroke-linecap="round"/><path d="M1 9H31" stroke="black" stroke-width="2" stroke-linecap="round"/><path d="M1 1H31" stroke="black" stroke-width="2" stroke-linecap="round"/></g></symbol><symbol id="icon-close" viewBox="0 0 20 20"><g fill="black"><path d="M.293 18.291a1 1 0 101.414 1.414L10 11.413l8.292 8.292a1 1 0 101.414-1.414l-8.292-8.292 8.292-8.292A1 1 0 1018.291.293L9.999 8.585 1.707.293A1 1 0 10.293 1.707L8.585 10 .293 18.291z"/></g></symbol></svg>